<svg width="12" height="12" viewBox="0 0 12 12" fill="none" xmlns="http://www.w3.org/2000/svg">
<path d="M11 2.86001L8.7 0.930008L8.055 1.69501L10.355 3.62501L11 2.86001ZM3.94 1.69501L3.3 0.930008L1 2.85501L1.645 3.62001L3.94 1.69501ZM6.25 4.00001H5.5V7.00001L7.875 8.42501L8.25 7.81001L6.25 6.62501V4.00001ZM6 2.00001C3.515 2.00001 1.5 4.01501 1.5 6.50001C1.5 8.98501 3.51 11 6 11C8.485 11 10.5 8.98501 10.5 6.50001C10.5 4.01501 8.485 2.00001 6 2.00001ZM6 10C4.065 10 2.5 8.43501 2.5 6.50001C2.5 4.56501 4.065 3.00001 6 3.00001C7.935 3.00001 9.5 4.56501 9.5 6.50001C9.5 8.43501 7.935 10 6 10Z" fill="black" fill-opacity="0.85"/>
</svg>
